<svg width="108" height="25" viewBox="0 0 108 25" fill="none" xmlns="http://www.w3.org/2000/svg">
<path d="M50.8001 21.12C47.5801 21.12 45.6201 19.1 45.6201 15.88C45.6201 12.7 47.6801 10.62 50.8801 10.62C53.6001 10.62 55.3201 12.1 55.7201 14.5H53.0601C52.8201 13.4 52.0401 12.72 50.8401 12.72C49.2401 12.72 48.2201 14.02 48.2201 15.88C48.2201 17.74 49.2201 19.02 50.8401 19.02C52.0601 19.02 52.8401 18.32 53.0801 17.2H55.7201C55.3401 19.62 53.5201 21.12 50.8001 21.12ZM60.7097 21.12C58.4697 21.12 56.8897 20.04 56.8897 18.12C56.8897 15.96 58.4697 14.76 61.4497 14.76H63.7297V14.2C63.7297 13.14 63.0097 12.54 61.6897 12.54C60.5097 12.54 59.7497 13.06 59.6097 13.88H57.1497C57.3497 11.9 59.1497 10.62 61.8097 10.62C64.6097 10.62 66.2497 11.92 66.2497 14.36V18.18C66.2497 18.72 66.4497 18.84 66.8897 18.84H67.2697V21H65.9497C64.5897 21 64.0697 20.36 64.0697 19.44V19.38C63.3897 20.42 62.3297 21.12 60.7097 21.12ZM61.1297 19.24C62.7497 19.24 63.7297 18.26 63.7297 16.78V16.5H61.3897C60.1297 16.5 59.4497 16.98 59.4497 17.92C59.4497 18.74 60.0897 19.24 61.1297 19.24ZM68.4629 21V10.74H70.6829L70.9229 12.04C71.4829 11.26 72.4029 10.62 73.9029 10.62C75.2229 10.62 76.4229 11.14 77.0429 12.42C77.7429 11.32 78.9029 10.62 80.5229 10.62C82.6429 10.62 84.3629 11.8 84.3629 14.96V21H81.8229V15.08C81.8229 13.56 81.1829 12.74 79.8829 12.74C78.5429 12.74 77.6829 13.68 77.6829 15.26V21H75.1429V15.08C75.1429 13.56 74.4829 12.74 73.1829 12.74C71.8429 12.74 71.0029 13.74 71.0029 15.32V21H68.4629ZM91.2922 21.12C88.0922 21.12 85.9522 19.02 85.9522 15.88C85.9522 12.72 88.0922 10.62 91.2922 10.62C94.4922 10.62 96.6322 12.72 96.6322 15.88C96.6322 19.02 94.4922 21.12 91.2922 21.12ZM91.2922 19.02C92.9722 19.02 94.0322 17.72 94.0322 15.88C94.0322 14.02 92.9722 12.72 91.2922 12.72C89.6122 12.72 88.5522 14.02 88.5522 15.88C88.5522 17.72 89.6122 19.02 91.2922 19.02ZM96.6984 21L100.518 15.76L96.8984 10.74H99.8384L102.078 13.94L104.378 10.74H107.158L103.558 15.76L107.358 21H104.418L101.938 17.56L99.4784 21H96.6984Z" fill="white"/>
<path d="M15.5396 13.125C15.5396 14.5747 14.38 15.75 12.9497 15.75C11.5193 15.75 10.3598 14.5747 10.3598 13.125C10.3598 11.6753 11.5193 10.5 12.9497 10.5C14.38 10.5 15.5396 11.6753 15.5396 13.125Z" fill="#00BC7D"/>
<path d="M7.76968 21C3.47861 21 3.75138e-07 17.4742 0 13.125L5.17979 13.125C5.17979 14.5747 6.33933 15.75 7.76968 15.75C9.20004 15.75 10.3598 14.5747 10.3598 13.125H15.5396C15.5396 17.4742 12.0608 21 7.76968 21Z" fill="#00BC7D"/>
<path d="M12.95 0C20.1018 4.05882e-06 25.8995 5.87627 25.8995 13.125H20.7197C20.7197 8.77584 17.241 5.25014 12.95 5.25C8.65893 5.25 5.17979 8.77576 5.17979 13.125L0 13.125C0 5.87627 5.79821 0 12.95 0Z" fill="#00BC7D"/>
<path d="M24.1724 15.75C24.1724 14.7835 24.9454 14 25.8989 14C26.8525 14 27.6255 14.7835 27.6255 15.75C27.6255 16.7165 26.8525 17.5 25.8989 17.5C24.9454 17.5 24.1724 16.7165 24.1724 15.75Z" fill="white"/>
<path d="M20.7192 10.5V19.25C20.7192 20.2165 21.4922 21 22.4458 21H30.006C30.6928 21 31.3516 20.7234 31.8373 20.2312L38.4908 13.4874C39.5785 12.385 38.8082 10.5 37.2699 10.5H20.7192Z" fill="#00BC7D"/>
</svg>
