<svg width="39" height="21" viewBox="0 0 39 21" fill="none" xmlns="http://www.w3.org/2000/svg">
<path d="M15.5396 13.125C15.5396 14.5747 14.38 15.75 12.9497 15.75C11.5193 15.75 10.3598 14.5747 10.3598 13.125C10.3598 11.6753 11.5193 10.5 12.9497 10.5C14.38 10.5 15.5396 11.6753 15.5396 13.125Z" fill="#00BC7D"/>
<path d="M7.76968 21C3.47861 21 3.75138e-07 17.4742 0 13.125L5.17979 13.125C5.17979 14.5747 6.33933 15.75 7.76968 15.75C9.20004 15.75 10.3598 14.5747 10.3598 13.125H15.5396C15.5396 17.4742 12.0608 21 7.76968 21Z" fill="#00BC7D"/>
<path d="M12.95 0C20.1018 4.05882e-06 25.8995 5.87627 25.8995 13.125H20.7197C20.7197 8.77584 17.241 5.25014 12.95 5.25C8.65893 5.25 5.17979 8.77576 5.17979 13.125L0 13.125C0 5.87627 5.79821 0 12.95 0Z" fill="#00BC7D"/>
<path d="M24.1724 15.75C24.1724 14.7835 24.9454 14 25.8989 14C26.8525 14 27.6255 14.7835 27.6255 15.75C27.6255 16.7165 26.8525 17.5 25.8989 17.5C24.9454 17.5 24.1724 16.7165 24.1724 15.75Z" fill="white"/>
<path d="M20.7192 10.5V19.25C20.7192 20.2165 21.4922 21 22.4458 21H30.006C30.6928 21 31.3516 20.7234 31.8373 20.2312L38.4908 13.4874C39.5785 12.385 38.8082 10.5 37.2699 10.5H20.7192Z" fill="#00BC7D"/>
</svg>
